<svg xmlns="http://www.w3.org/2000/svg" xmlns:xlink="http://www.w3.org/1999/xlink" width="500" zoomAndPan="magnify" viewBox="0 0 375 374.999991" height="500" preserveAspectRatio="xMidYMid meet" version="1.0"><defs><g/><clipPath id="ef62f1e6d9"><path d="M 46.222656 46.222656 L 328.777344 46.222656 L 328.777344 328.777344 L 46.222656 328.777344 Z M 46.222656 46.222656 " clip-rule="nonzero"/></clipPath><clipPath id="777e1e9077"><path d="M 187.5 46.222656 C 109.476562 46.222656 46.222656 109.476562 46.222656 187.5 C 46.222656 265.523438 109.476562 328.777344 187.5 328.777344 C 265.523438 328.777344 328.777344 265.523438 328.777344 187.5 C 328.777344 109.476562 265.523438 46.222656 187.5 46.222656 Z M 187.5 46.222656 " clip-rule="nonzero"/></clipPath></defs><g clip-path="url(#ef62f1e6d9)"><g clip-path="url(#777e1e9077)"><path fill="#f1f4ec" d="M 46.222656 46.222656 L 328.777344 46.222656 L 328.777344 328.777344 L 46.222656 328.777344 Z M 46.222656 46.222656 " fill-opacity="1" fill-rule="nonzero"/></g></g><g fill="#9b1b63" fill-opacity="1"><g transform="translate(86.834192, 240.577991)"><g><path d="M 10.21875 0 L 10.21875 -3.046875 C 13.84375 -4.203125 16.195312 -6.628906 17.28125 -10.328125 C 18.375 -14.023438 18.921875 -19.785156 18.921875 -27.609375 L 18.921875 -124.59375 C 18.921875 -132.414062 18.375 -138.175781 17.28125 -141.875 C 16.195312 -145.570312 13.84375 -148 10.21875 -149.15625 L 10.21875 -152.203125 L 55.875 -152.203125 C 68.34375 -152.203125 78.523438 -150.859375 86.421875 -148.171875 C 94.328125 -145.492188 100.488281 -142.015625 104.90625 -137.734375 C 109.332031 -133.460938 112.414062 -128.863281 114.15625 -123.9375 C 115.894531 -119.007812 116.765625 -114.367188 116.765625 -110.015625 C 116.765625 -101.035156 114.515625 -92.703125 110.015625 -85.015625 C 105.523438 -77.335938 98.566406 -71.210938 89.140625 -66.640625 C 79.722656 -62.078125 67.550781 -59.796875 52.625 -59.796875 L 41.96875 -59.796875 L 41.96875 -27.609375 C 41.96875 -19.785156 42.507812 -14.023438 43.59375 -10.328125 C 44.6875 -6.628906 47.039062 -4.203125 50.65625 -3.046875 L 50.65625 0 Z M 41.96875 -63.28125 L 51.53125 -63.28125 C 65.738281 -63.28125 76.066406 -67.046875 82.515625 -74.578125 C 88.960938 -82.117188 92.1875 -92.050781 92.1875 -104.375 C 92.1875 -109.007812 91.535156 -113.898438 90.234375 -119.046875 C 88.929688 -124.191406 86.648438 -129.007812 83.390625 -133.5 C 80.128906 -138 75.671875 -141.660156 70.015625 -144.484375 C 64.359375 -147.316406 57.253906 -148.734375 48.703125 -148.734375 C 46.242188 -148.734375 44 -148.585938 41.96875 -148.296875 Z M 41.96875 -63.28125 "/></g></g></g><g fill="#9b1b63" fill-opacity="1"><g transform="translate(196.963703, 291.429031)"><g><path d="M 10.21875 0 L 10.21875 -3.046875 C 13.84375 -4.203125 16.195312 -6.628906 17.28125 -10.328125 C 18.375 -14.023438 18.921875 -19.785156 18.921875 -27.609375 L 18.921875 -124.59375 C 18.921875 -132.414062 18.375 -138.175781 17.28125 -141.875 C 16.195312 -145.570312 13.84375 -148 10.21875 -149.15625 L 10.21875 -152.203125 L 55.875 -152.203125 C 68.34375 -152.203125 78.523438 -150.859375 86.421875 -148.171875 C 94.328125 -145.492188 100.488281 -142.015625 104.90625 -137.734375 C 109.332031 -133.460938 112.414062 -128.863281 114.15625 -123.9375 C 115.894531 -119.007812 116.765625 -114.367188 116.765625 -110.015625 C 116.765625 -101.035156 114.515625 -92.703125 110.015625 -85.015625 C 105.523438 -77.335938 98.566406 -71.210938 89.140625 -66.640625 C 79.722656 -62.078125 67.550781 -59.796875 52.625 -59.796875 L 41.96875 -59.796875 L 41.96875 -27.609375 C 41.96875 -19.785156 42.507812 -14.023438 43.59375 -10.328125 C 44.6875 -6.628906 47.039062 -4.203125 50.65625 -3.046875 L 50.65625 0 Z M 41.96875 -63.28125 L 51.53125 -63.28125 C 65.738281 -63.28125 76.066406 -67.046875 82.515625 -74.578125 C 88.960938 -82.117188 92.1875 -92.050781 92.1875 -104.375 C 92.1875 -109.007812 91.535156 -113.898438 90.234375 -119.046875 C 88.929688 -124.191406 86.648438 -129.007812 83.390625 -133.5 C 80.128906 -138 75.671875 -141.660156 70.015625 -144.484375 C 64.359375 -147.316406 57.253906 -148.734375 48.703125 -148.734375 C 46.242188 -148.734375 44 -148.585938 41.96875 -148.296875 Z M 41.96875 -63.28125 "/></g></g></g></svg>